ply
format ascii 1.0
element vertex 36
property float x
property float y
property float z
property uchar diffuse_red
property uchar diffuse_green
property uchar diffuse_blue
end_header
0.34568 0.0273632 -0.839026 0 255 0
1.11454 0.00963984 -0.837975 0 255 0
0.651218 1.15091e-009 -0.639258 0 255 0
0.0425705 0.0156716 -0.737057 0 255 0
-0.337245 0.012649 -0.65121 0 255 0
1.61425 0.0179845 -1.0528 0 255 0
2.01621 -4.87539e-009 -1.1681 0 255 0
-0.827546 0.0266271 -0.516199 0 255 0
-1.16968 0.0357717 -0.394865 255 0 255
-1.52331 -1.00729e-008 -1.43863 0 255 0
-1.78559 -0.0951005 -1.12278 255 0 255
-1.66513 -0.0209016 -0.358344 255 0 255
-2.15309 -0.229143 -0.719746 255 0 255
-2.18985 -0.0243777 -0.602097 0 255 0
-2.04544 -0.11297 -0.0793248 0 255 0
-1.87048 -0.123063 -0.885061 0 255 0
-2.65857 0.139707 0.341675 255 0 255
2.45932 0.0303014 -1.31394 255 0 255
3.09052 0.0225312 -1.25925 255 0 255
3.06877 0.24969 -1.22698 255 0 255
2.51307 0.532068 -1.24057 0 255 0
2.27124 0.598002 -1.25125 255 0 255
2.89765 0.464094 -1.25035 255 0 255
2.79048 0.578185 -1.27868 0 255 0
0.914487 1.152 -1.51506 255 0 255
0.545356 1.15373 -1.54323 255 0 255
0.692977 1.16469 -1.52888 255 0 255
0.341023 1.12871 -1.60362 0 255 0
0.168131 1.1402 -1.60218 0 255 0
0.0622735 1.13244 -1.5288 255 0 255
-0.56253 0.976083 -1.60097 0 255 0
-0.303545 1.09571 -1.47258 255 0 255
-0.921957 0.430076 -1.53831 255 0 255
-1.21312 0.193661 -1.4969 255 0 255
1.21898 1.03328 -1.48663 0 255 0
1.49303 1.00374 -1.46593 255 0 255
