ply
format ascii 1.0
element vertex 18
property float x
property float y
property float z
end_header
-1.16968 0.0357717 -0.394865
-1.78559 -0.0951005 -1.12278
-1.66513 -0.0209016 -0.358344
-2.15309 -0.229143 -0.719746
-2.65857 0.139707 0.341675
2.45932 0.0303014 -1.31394
3.09052 0.0225312 -1.25925
3.06877 0.24969 -1.22698
2.27124 0.598002 -1.25125
2.89765 0.464094 -1.25035
0.914487 1.152 -1.51506
0.545356 1.15373 -1.54323
0.692977 1.16469 -1.52888
0.0622735 1.13244 -1.5288
-0.303545 1.09571 -1.47258
-0.921957 0.430076 -1.53831
-1.21312 0.193661 -1.4969
1.49303 1.00374 -1.46593
