ply
format ascii 1.0
element vertex 36
property float x
property float y
property float z
property uchar diffuse_red
property uchar diffuse_green
property uchar diffuse_blue
end_header
-0.0388265 -0.00790206 0.109978 0 255 0
0.747514 -3.77026e-009 -0.290977 0 255 0
-0.117956 0.0708038 0.360494 0 255 0
-0.637102 -0.154753 -0.39358 0 255 0
-1.48186 0.118259 0.0946205 255 0 255
2.00984 0.138689 0.0275536 255 0 255
2.7385 -8.23948e-009 0.0166172 0 255 0
-1.74673 -0.0155512 0.714225 255 0 255
-2.26222 0.0490079 1.15076 0 255 0
-2.06142 1.20863e-010 1.88435 0 255 0
-2.0508 1.39572 1.72476 0 255 0
-1.83142 0.216653 1.83114 0 255 0
-2.03358 0.573448 1.71743 0 255 0
-1.64704 0.477348 1.77108 255 0 255
-2.20532 0.809134 1.62722 0 255 0
-1.41223 1.2896 1.7394 255 0 255
-3.03801 1.4885 1.9375 255 0 255
-0.699565 1.2028 1.99781 255 0 255
-0.233158 1.01001 1.88596 255 0 255
1.11091 0.781572 1.60776 255 0 255
-2.85612 2.00082 1.3741 255 0 255
-3.24213 1.69789 1.94114 255 0 255
1.98886 1.04669 1.72661 0 255 0
3.93093 0.777232 1.627 255 0 255
5.75349 0.260513 1.93377 0 255 0
5.39672 0.431823 1.65984 0 255 0
4.62255 -0.178835 0.153101 255 0 255
6.19619 -0.235161 0.573624 255 0 255
7.64744 -0.071009 1.72532 255 0 255
9.06103 -0.10058 1.63841 0 255 0
8.91325 -0.0506358 0.37996 255 0 255
7.86659 -0.183035 0.429234 255 0 255
8.68794 0.255775 0.198333 0 255 0
8.82514 -0.0498337 0.419589 255 0 255
8.80261 -0.0047681 0.345843 0 255 0
9.98071 0.249246 0.215766 255 0 255
