ply
format ascii 1.0
element vertex 19
property float x
property float y
property float z
end_header
-1.48186 0.118259 0.0946205
2.00984 0.138689 0.0275536
-1.74673 -0.0155512 0.714225
-1.64704 0.477348 1.77108
-1.41223 1.2896 1.7394
-3.03801 1.4885 1.9375
-0.699565 1.2028 1.99781
-0.233158 1.01001 1.88596
1.11091 0.781572 1.60776
-2.85612 2.00082 1.3741
-3.24213 1.69789 1.94114
3.93093 0.777232 1.627
4.62255 -0.178835 0.153101
6.19619 -0.235161 0.573624
7.64744 -0.071009 1.72532
8.91325 -0.0506358 0.37996
7.86659 -0.183035 0.429234
8.82514 -0.0498337 0.419589
9.98071 0.249246 0.215766
