ply
format ascii 1.0
element vertex 15
property float x
property float y
property float z
end_header
-1.07001 -0.823531 0.0215316
0.161628 -0.807016 0.155085
0.657308 -0.579426 0.180279
0.908113 -0.698455 0.157367
1.88836 -0.155593 0.163757
-1.58292 -1.90755 0.161486
2.14532 -4.36793e-009 0.203155
2.64528 0.0102383 0.215558
2.58561 -0.001734 0.371101
1.8345 -0.0845576 0.668631
0.937328 0.00681311 0.959784
0.726934 -0.000473461 0.94903
0.615347 0.0143927 0.939732
0.513163 -0.00121297 0.947437
-0.272508 -0.151977 0.433744
