ply
format ascii 1.0
element vertex 32
property float x
property float y
property float z
property uchar diffuse_red
property uchar diffuse_green
property uchar diffuse_blue
end_header
0.0398331 -0.0230196 0.291064 0 255 0
-0.143381 6.19038e-009 -0.704087 0 255 0
0.399842 -0.134957 0.535248 0 255 0
0.668282 -0.215251 0.546681 0 255 0
0.837288 -0.152875 0.606152 0 255 0
0.21133 -0.096338 0.454474 0 255 0
1.43305 -0.0656084 0.778963 0 255 0
0.951659 0.114687 -0.522391 255 0 255
-0.110886 -0.0352178 -0.764571 0 255 0
0.657404 0.0413117 -0.596925 255 0 255
2.31455 -0.00705269 0.957875 255 0 255
2.44603 0.0409221 1.00154 0 255 0
2.68345 0.0970757 1.0447 255 0 255
2.93626 0.0858857 1.04108 0 255 0
3.47964 0.0182849 1.10677 255 0 255
3.76631 0.0232755 0.935371 0 255 0
3.99319 0.0424178 0.7161 255 0 255
4.07513 0.0615293 0.560855 255 0 255
2.75763 0.0871718 0.00311537 255 0 255
2.32176 -0.0194402 -0.148617 255 0 255
1.6184 -7.04852e-009 0.866071 255 0 255
1.91441 0.0850928 -0.199092 0 255 0
1.30578 -0.0222222 -0.435264 0 255 0
1.18894 -0.185252 0.639442 255 0 255
0.156709 0.00549949 -0.604008 0 255 0
1.66867 -1.01646e-008 -0.369394 0 255 0
-0.0723732 0.0147969 -0.206572 255 0 255
3.07228 0.0804982 0.128974 255 0 255
3.54028 -0.116994 0.159881 0 255 0
3.77854 -0.0149091 0.370339 0 255 0
1.83448 0.00824793 0.917735 255 0 255
-0.0871282 -0.045663 0.106359 0 255 0
