ply
format ascii 1.0
element vertex 16
property float x
property float y
property float z
end_header
-1.78757 0.436956 0.656554
-1.69742 0.938497 0.688119
-2.03107 1.19861 0.799227
-2.4183 1.61304 0.711559
-0.740742 -1.72632e-009 -0.610515
-0.0593399 -0.0208052 -0.803135
0.155211 -0.0347656 -0.813971
0.440462 -0.00842046 -0.827356
-0.532727 0.121257 -0.699887
0.666919 -5.14395e-009 -0.838188
1.05371 -0.0082016 -0.853119
2.59253 -0.123854 0.265486
3.16818 -0.107004 0.255298
2.65463 0.0521207 -0.39191
3.15052 0.0408965 -0.265836
3.08192 0.0362937 -0.394496
