ply
format ascii 1.0
element vertex 36
property float x
property float y
property float z
property uchar diffuse_red
property uchar diffuse_green
property uchar diffuse_blue
end_header
0.356522 0.377932 0.437707 0 255 0
1.21155 0.323931 0.45827 0 255 0
0.699881 0.521832 0.530633 0 255 0
0.00899323 0.491254 0.454099 0 255 0
-0.344662 0.58661 0.516459 0 255 0
1.71575 0.124762 0.37079 0 255 0
2.0411 -4.80288e-009 0.343275 0 255 0
-0.874677 0.744454 0.565671 0 255 0
-1.20862 0.875848 0.59203 0 255 0
-1.55658 -0.0194437 0.447324 0 255 0
-1.73895 0.242347 0.588947 0 255 0
-2.03882 0.585116 0.78721 0 255 0
-2.04964 0.718762 0.627694 0 255 0
-1.78757 0.436956 0.656554 255 0 255
-1.69742 0.938497 0.688119 255 0 255
-2.03107 1.19861 0.799227 255 0 255
-2.4183 1.61304 0.711559 255 0 255
-1.31491 -0.0322082 0.261087 0 255 0
-1.09691 -0.0398722 -0.000822963 0 255 0
-0.740742 -1.72632e-009 -0.610515 255 0 255
-0.147626 0.042466 -0.761222 0 255 0
-0.0593399 -0.0208052 -0.803135 255 0 255
0.155211 -0.0347656 -0.813971 255 0 255
0.440462 -0.00842046 -0.827356 255 0 255
-0.532727 0.121257 -0.699887 255 0 255
0.666919 -5.14395e-009 -0.838188 255 0 255
1.05371 -0.0082016 -0.853119 255 0 255
1.46514 -0.0331772 -0.728105 0 255 0
2.59253 -0.123854 0.265486 255 0 255
3.2255 0.00727041 -0.0523911 0 255 0
3.16818 -0.107004 0.255298 255 0 255
2.79637 0.0568384 -0.373868 0 255 0
2.65463 0.0521207 -0.39191 255 0 255
3.15052 0.0408965 -0.265836 255 0 255
3.08192 0.0362937 -0.394496 255 0 255
1.82774 -0.0497174 -0.712895 0 255 0
