ply
format ascii 1.0
element vertex 32
property float x
property float y
property float z
property uchar diffuse_red
property uchar diffuse_green
property uchar diffuse_blue
end_header
0.00257303 -0.0157984 0.0318688 0 255 0
-1.04584 0.0189625 0.0872538 0 255 0
0.184934 -0.00914799 -0.140777 0 255 0
-0.225303 -0.010151 0.169705 0 255 0
0.251559 -2.14973e-009 -0.265782 0 255 0
-0.854905 0.0621244 0.119644 0 255 0
-0.655184 0.0498796 0.117126 255 0 255
-1.14992 -0.0177093 0.0550768 255 0 255
-0.788679 0.0271393 -0.704518 0 255 0
-1.13182 -0.0531701 -0.820619 255 0 255
-1.84195 -0.0536225 -0.0856246 0 255 0
-2.30867 -0.114232 -0.226252 0 255 0
-2.44183 -0.16116 -0.268847 0 255 0
-2.65164 -0.0930444 -0.281325 0 255 0
-2.92547 0.00141368 -0.480671 0 255 0
-2.79816 -0.0602213 -0.349906 0 255 0
-2.21397 0.0676381 -1.11236 255 0 255
-3.06928 6.41938e-008 -1.26519 255 0 255
-1.45314 0.0359546 -0.859822 0 255 0
-1.69867 -0.00228015 -0.0225733 0 255 0
-3.0458 -0.0322713 -1.31389 255 0 255
-2.4407 0.0150817 -1.18106 0 255 0
-1.92932 -0.0402996 -1.04743 255 0 255
-2.03958 -0.149361 -0.184194 255 0 255
-2.83449 -0.00364366 -1.19134 0 255 0
-1.64733 -0.0326045 -0.993189 255 0 255
-3.00842 0.0258969 -0.868792 255 0 255
-1.53397 2.99535e-009 0.0267877 255 0 255
-0.550575 0.0194333 -0.610447 0 255 0
0.0124425 -0.0606167 -0.411371 255 0 255
-0.186118 -0.142429 -0.569383 255 0 255
-3.03585 -0.0246762 -0.626958 255 0 255
