ply
format ascii 1.0
element vertex 14
property float x
property float y
property float z
end_header
-0.655184 0.0498796 0.117126
-1.14992 -0.0177093 0.0550768
-1.13182 -0.0531701 -0.820619
-2.21397 0.0676381 -1.11236
-3.06928 6.41938e-008 -1.26519
-3.0458 -0.0322713 -1.31389
-1.92932 -0.0402996 -1.04743
-2.03958 -0.149361 -0.184194
-1.64733 -0.0326045 -0.993189
-3.00842 0.0258969 -0.868792
-1.53397 2.99535e-009 0.0267877
0.0124425 -0.0606167 -0.411371
-0.186118 -0.142429 -0.569383
-3.03585 -0.0246762 -0.626958
