ply
format ascii 1.0
element vertex 17
property float x
property float y
property float z
end_header
3.05801 0.00379771 -0.358084
3.80447 -0.132494 0.0768428
3.01661 -0.155034 0.390218
3.66751 -0.147564 0.251852
-1.02518 -0.987631 -0.682427
-1.84547 -0.0216916 -0.594491
-2.46787 -0.913164 -0.780603
-2.13698 -0.590321 -0.817795
-2.42955 -1.51241 -0.949399
-2.95229 -2.00597 -0.799884
-0.79568 -1.7343e-009 0.696379
-0.116644 -0.0689161 0.867869
0.543767 -0.00857647 0.925954
0.819478 -0.021666 0.933931
1.22037 -0.0242212 0.928442
2.14616 0.0109602 0.743517
1.70881 -8.4789e-009 0.7698
