ply
format ascii 1.0
element vertex 36
property float x
property float y
property float z
property uchar diffuse_red
property uchar diffuse_green
property uchar diffuse_blue
end_header
0.438722 -0.574012 -0.567138 0 255 0
1.43695 -0.531524 -0.560943 0 255 0
0.840493 -0.762575 -0.630807 0 255 0
0.0133378 -0.700736 -0.61213 0 255 0
-0.405245 -0.80973 -0.670105 0 255 0
2.04754 -0.287591 -0.487276 0 255 0
2.45009 -0.141084 -0.458816 0 255 0
3.05801 0.00379771 -0.358084 255 0 255
3.76317 -0.0231654 -0.353369 0 255 0
3.80447 -0.132494 0.0768428 255 0 255
3.2751 -0.167194 0.360956 0 255 0
3.01661 -0.155034 0.390218 255 0 255
3.66751 -0.147564 0.251852 255 0 255
3.56097 -0.131644 0.376606 0 255 0
-1.02518 -0.987631 -0.682427 255 0 255
-1.43098 -1.14031 -0.714585 0 255 0
-1.84547 -0.0216916 -0.594491 255 0 255
-2.0724 -0.345876 -0.750426 0 255 0
-2.45637 -0.765826 -0.975725 0 255 0
-2.46787 -0.913164 -0.780603 255 0 255
-2.13698 -0.590321 -0.817795 255 0 255
-2.01803 -1.19669 -0.825219 0 255 0
-2.42955 -1.51241 -0.949399 255 0 255
-2.95229 -2.00597 -0.799884 255 0 255
-1.53367 4.73813e-009 -0.362899 0 255 0
-1.25733 0.0158959 -0.0566926 0 255 0
-0.79568 -1.7343e-009 0.696379 255 0 255
-0.116644 -0.0689161 0.867869 255 0 255
-0.00449615 0.00737605 0.911417 0 255 0
0.250638 0.0168896 0.928282 0 255 0
0.543767 -0.00857647 0.925954 255 0 255
-0.580551 -0.147939 0.79613 0 255 0
0.819478 -0.021666 0.933931 255 0 255
1.22037 -0.0242212 0.928442 255 0 255
2.14616 0.0109602 0.743517 255 0 255
1.70881 -8.4789e-009 0.7698 255 0 255
