ply
format ascii 1.0
element vertex 32
property float x
property float y
property float z
property uchar diffuse_red
property uchar diffuse_green
property uchar diffuse_blue
end_header
-0.00823027 -0.0709779 0.179536 0 255 0
-0.219383 -0.132534 -1.05968 0 255 0
0.433577 -0.192511 0.497744 0 255 0
0.765478 -0.295835 0.524174 0 255 0
0.976517 -0.214786 0.589634 0 255 0
0.202116 -0.150713 0.389461 0 255 0
1.71578 -0.0977191 0.807863 0 255 0
1.13573 0.00625693 -0.822761 255 0 255
-0.177258 -0.181184 -1.13449 0 255 0
0.774057 -0.0889783 -0.922707 255 0 255
2.81302 -0.0159196 1.03963 0 255 0
2.97669 0.0449167 1.0868 255 0 255
3.27728 0.11844 1.14228 0 255 0
3.59107 0.100094 1.1408 255 0 255
4.27029 0.0157971 1.23779 255 0 255
4.6305 3.68956e-005 1.02782 0 255 0
4.91756 -8.55348e-009 0.755166 255 0 255
5.02463 0.00686057 0.56219 0 255 0
3.38405 -1.85401e-008 -0.157043 255 0 255
2.83946 -0.140564 -0.333781 0 255 0
2.33363 -0.0117229 -0.421845 0 255 0
1.94424 -0.00940314 0.913179 255 0 255
1.58385 -0.154212 -0.704202 255 0 255
1.40541 -0.261049 0.658061 255 0 255
0.157809 -0.128231 -0.947244 255 0 255
2.03609 -0.129527 -0.623352 0 255 0
-0.115751 -0.0461232 -0.446554 255 0 255
2.20877 -1.85725e-009 0.990865 255 0 255
3.77585 0.000314852 0.00595182 255 0 255
4.35925 -0.247025 0.0861201 0 255 0
4.65263 -0.103175 0.332467 0 255 0
-0.136824 -0.0849513 -0.0532409 255 0 255
