ply
format ascii 1.0
element vertex 15
property float x
property float y
property float z
end_header
1.13573 0.00625693 -0.822761
0.774057 -0.0889783 -0.922707
2.97669 0.0449167 1.0868
3.59107 0.100094 1.1408
4.27029 0.0157971 1.23779
4.91756 -8.55348e-009 0.755166
3.38405 -1.85401e-008 -0.157043
1.94424 -0.00940314 0.913179
1.58385 -0.154212 -0.704202
1.40541 -0.261049 0.658061
0.157809 -0.128231 -0.947244
-0.115751 -0.0461232 -0.446554
2.20877 -1.85725e-009 0.990865
3.77585 0.000314852 0.00595182
-0.136824 -0.0849513 -0.0532409
