ply
format ascii 1.0
element vertex 15
property float x
property float y
property float z
end_header
-4.81392 0.217243 0.548501
-5.84408 -0.983042 -0.180493
-6.84039 -0.322563 0.803489
-6.92001 1.06862e-008 0.666964
-6.05456 0.330001 0.778892
-7.60885 1.27407 1.306
0.189659 -7.83313e-009 -1.03786
0.612324 0.0263359 -1.14131
-2.78663 0.0112212 -1.87189
-2.56255 0.0366612 -1.87935
-3.12763 -0.0790192 -1.8683
-3.37562 -0.0816052 -1.86769
-4.49197 -0.2904 -1.5997
-5.40039 -0.868565 -0.511052
-1.79124 0.00171479 -1.7343
