ply
format ascii 1.0
element vertex 36
property float x
property float y
property float z
property uchar diffuse_red
property uchar diffuse_green
property uchar diffuse_blue
end_header
0.172481 -0.529916 -0.427968 0 255 0
1.05959 -0.162052 -0.707552 0 255 0
1.09596 -0.412587 -0.411181 0 255 0
-0.472363 -0.421503 -0.218463 0 255 0
-1.096 -0.301735 -0.122989 0 255 0
-1.84284 -0.0856702 0.112359 0 255 0
-2.52681 0.10819 0.356007 0 255 0
-3.01314 -0.116678 0.162501 0 255 0
-3.48654 -0.0217887 0.298336 0 255 0
-4.09003 0.0394391 0.430508 0 255 0
-4.81392 0.217243 0.548501 255 0 255
-5.33476 0.372102 0.640257 0 255 0
-5.84408 -0.983042 -0.180493 255 0 255
-6.25555 -0.693485 0.237402 0 255 0
-6.84039 -0.322563 0.803489 255 0 255
-6.92001 1.06862e-008 0.666964 255 0 255
-6.05456 0.330001 0.778892 255 0 255
-6.63481 0.578263 1.18611 0 255 0
-6.42642 -0.417647 0.509352 0 255 0
-7.60885 1.27407 1.306 255 0 255
0.189659 -7.83313e-009 -1.03786 255 0 255
-0.204434 0.0314619 -1.11872 0 255 0
0.778405 -0.0330331 -0.968854 0 255 0
0.612324 0.0263359 -1.14131 255 0 255
-2.22023 0.0431749 -1.87107 0 255 0
-2.78663 0.0112212 -1.87189 255 0 255
-2.56255 0.0366612 -1.87935 255 0 255
-3.12763 -0.0790192 -1.8683 255 0 255
-3.37562 -0.0816052 -1.86769 255 0 255
-3.54117 -0.00747827 -1.78952 0 255 0
-4.49197 -0.2904 -1.5997 255 0 255
-4.06048 -3.01934e-008 -1.66787 0 255 0
-4.95772 -0.701871 -0.847531 0 255 0
-5.40039 -0.868565 -0.511052 255 0 255
-1.79124 0.00171479 -1.7343 255 0 255
-1.36386 -0.00661202 -1.67972 0 255 0
