ply
format ascii 1.0
element vertex 15
property float x
property float y
property float z
end_header
-0.124119 -0.965525 0.17639
0.657308 -0.579426 0.180279
0.908113 -0.698455 0.157367
1.21446 -0.495579 0.173772
1.5536 -0.275806 0.18295
1.88836 -0.155593 0.163757
-1.58292 -1.90755 0.161486
2.58561 -0.001734 0.371101
0.726934 -0.000473461 0.94903
0.795465 0.00223921 0.954973
0.513163 -0.00121297 0.947437
0.433792 -0.0701364 0.947182
-0.0822656 -0.0803894 0.795752
0.211165 -0.138989 0.905225
-0.272508 -0.151977 0.433744
