ply
format ascii 1.0
element vertex 36
property float x
property float y
property float z
property uchar diffuse_red
property uchar diffuse_green
property uchar diffuse_blue
end_header
-0.750189 -0.298225 0.127132 0 255 0
-1.27332 -0.985936 -0.0794133 0 255 0
-0.974828 -0.598577 0.0459905 0 255 0
-1.31269 -1.09734 0.0950011 0 255 0
-0.699016 -1.15539 0.143722 0 255 0
-0.991047 -1.43363 0.0472294 0 255 0
-0.346428 -1.09279 0.182561 0 255 0
-0.124119 -0.965525 0.17639 255 0 255
-1.07001 -0.823531 0.0215316 0 255 0
0.161628 -0.807016 0.155085 0 255 0
0.460058 -0.694909 0.17742 0 255 0
0.657308 -0.579426 0.180279 255 0 255
0.908113 -0.698455 0.157367 255 0 255
1.21446 -0.495579 0.173772 255 0 255
1.5536 -0.275806 0.18295 255 0 255
1.88836 -0.155593 0.163757 255 0 255
-1.58292 -1.90755 0.161486 255 0 255
2.14532 -4.36793e-009 0.203155 0 255 0
2.64528 0.0102383 0.215558 0 255 0
2.58561 -0.001734 0.371101 255 0 255
2.09922 -0.0483553 0.587075 0 255 0
1.8345 -0.0845576 0.668631 0 255 0
2.40985 -1.05458e-008 0.542284 0 255 0
2.30581 0.012011 0.639216 0 255 0
0.937328 0.00681311 0.959784 0 255 0
0.726934 -0.000473461 0.94903 255 0 255
0.795465 0.00223921 0.954973 255 0 255
0.615347 0.0143927 0.939732 0 255 0
0.513163 -0.00121297 0.947437 255 0 255
0.433792 -0.0701364 0.947182 255 0 255
-0.0822656 -0.0803894 0.795752 255 0 255
0.211165 -0.138989 0.905225 255 0 255
-0.272508 -0.151977 0.433744 255 0 255
-0.499172 -0.21457 0.277107 0 255 0
1.10499 8.59185e-009 0.918838 0 255 0
1.29255 0.0112959 0.916974 0 255 0
